<svg width="1440" height="296" viewBox="0 0 1440 296" fill="none" xmlns="http://www.w3.org/2000/svg">
<g clip-path="url(#clip0_401_609)">
<rect width="1440" height="296" fill="#0B1B2B"/>
<g filter="url(#filter0_f_401_609)">
<circle cx="-12" cy="22" r="118" fill="#14589C"/>
</g>
<g filter="url(#filter1_f_401_609)">
<circle cx="1355.07" cy="42.9365" r="77.6256" transform="rotate(15 1355.07 42.9365)" fill="#14589C"/>
</g>
<rect x="212" y="125" width="69" height="3" rx="1.5" fill="#1562AF" fill-opacity="0.14"/>
<rect x="99" y="125" width="106" height="3" rx="1.5" fill="#1562AF" fill-opacity="0.14"/>
<rect y="125" width="92" height="3" rx="1.5" fill="#1562AF" fill-opacity="0.14"/>
<rect x="287" y="125" width="77" height="3" rx="1.5" fill="#1562AF" fill-opacity="0.34"/>
<rect x="328" y="136" width="36" height="3" rx="1.5" fill="#1562AF" fill-opacity="0.14"/>
<rect x="184" y="136" width="137" height="3" rx="1.5" fill="#1562AF" fill-opacity="0.14"/>
<rect x="72" y="136" width="105" height="3" rx="1.5" fill="#1562AF" fill-opacity="0.34"/>
<rect y="136" width="65" height="3" rx="1.5" fill="#1562AF" fill-opacity="0.14"/>
<rect y="70" width="144" height="3" rx="1.5" fill="#1562AF" fill-opacity="0.14"/>
<rect x="151" y="70" width="136" height="3" rx="1.5" fill="#1562AF" fill-opacity="0.34"/>
<rect width="46" height="3" rx="1.5" transform="matrix(-1 0 0 1 340 70)" fill="#1562AF" fill-opacity="0.14"/>
<rect x="122" y="81" width="111" height="3" rx="1.5" fill="#1562AF" fill-opacity="0.14"/>
<rect x="122" y="222" width="111" height="3" rx="1.5" fill="#1562AF" fill-opacity="0.14"/>
<rect y="81" width="115" height="3" rx="1.5" fill="#1562AF" fill-opacity="0.34"/>
<rect y="222" width="115" height="3" rx="1.5" fill="#1562AF" fill-opacity="0.34"/>
<rect x="275" y="81" width="28" height="3" rx="1.5" fill="#1562AF" fill-opacity="0.34"/>
<rect x="240" y="81" width="28" height="3" rx="1.5" fill="#1562AF" fill-opacity="0.14"/>
<rect x="240" y="222" width="37" height="3" rx="1.5" fill="#1562AF" fill-opacity="0.14"/>
<rect x="310" y="81" width="83" height="3" rx="1.5" fill="#1562AF" fill-opacity="0.14"/>
<rect x="284" y="92" width="89" height="3" rx="1.5" fill="#1562AF" fill-opacity="0.14"/>
<rect x="284" y="233" width="19" height="3" rx="1.5" fill="#1562AF" fill-opacity="0.14"/>
<rect x="134" y="92" width="143" height="3" rx="1.5" fill="#1562AF" fill-opacity="0.34"/>
<rect x="134" y="233" width="143" height="3" rx="1.5" fill="#1562AF" fill-opacity="0.34"/>
<rect x="95" y="92" width="32" height="3" rx="1.5" fill="#1562AF" fill-opacity="0.14"/>
<rect x="95" y="233" width="32" height="3" rx="1.5" fill="#1562AF" fill-opacity="0.14"/>
<rect y="92" width="88" height="3" rx="1.5" fill="#1562AF" fill-opacity="0.14"/>
<rect y="233" width="88" height="3" rx="1.5" fill="#1562AF" fill-opacity="0.14"/>
<rect x="349" y="103" width="60" height="3" rx="1.5" fill="#1562AF" fill-opacity="0.34"/>
<rect x="201" y="103" width="142" height="3" rx="1.5" fill="#1562AF" fill-opacity="0.14"/>
<rect x="201" y="244" width="51" height="3" rx="1.5" fill="#1562AF" fill-opacity="0.14"/>
<rect x="259" y="244" width="62" height="3" rx="1.5" fill="#1562AF" fill-opacity="0.34"/>
<rect x="163" y="103" width="31" height="3" rx="1.5" fill="#1562AF" fill-opacity="0.14"/>
<rect x="106" y="103" width="51" height="3" rx="1.5" fill="#1562AF" fill-opacity="0.14"/>
<rect x="106" y="244" width="88" height="3" rx="1.5" fill="#1562AF" fill-opacity="0.14"/>
<rect x="32" y="103" width="67" height="3" rx="1.5" fill="#1562AF" fill-opacity="0.34"/>
<rect y="244" width="99" height="3" rx="1.5" fill="#1562AF" fill-opacity="0.34"/>
<rect y="103" width="25" height="3" rx="1.5" fill="#1562AF" fill-opacity="0.14"/>
<rect y="114" width="72" height="3" rx="1.5" fill="#1562AF" fill-opacity="0.34"/>
<rect y="255" width="72" height="3" rx="1.5" fill="#1562AF" fill-opacity="0.14"/>
<rect x="79" y="114" width="97" height="3" rx="1.5" fill="#1562AF" fill-opacity="0.14"/>
<rect x="79" y="255" width="55" height="3" rx="1.5" fill="#1562AF" fill-opacity="0.34"/>
<rect width="61" height="3" rx="1.5" transform="matrix(-1 0 0 1 1250 197)" fill="#1562AF" fill-opacity="0.14"/>
<rect width="94" height="3" rx="1.5" transform="matrix(-1 0 0 1 1350 197)" fill="#1562AF" fill-opacity="0.34"/>
<rect width="82" height="3" rx="1.5" transform="matrix(-1 0 0 1 1438 197)" fill="#1562AF" fill-opacity="0.14"/>
<rect width="68" height="3" rx="1.5" transform="matrix(-1 0 0 1 1183 197)" fill="#1562AF" fill-opacity="0.34"/>
<rect width="42" height="3" rx="1.5" transform="matrix(-1 0 0 1 1109 208)" fill="#1562AF" fill-opacity="0.34"/>
<rect width="32" height="3" rx="1.5" transform="matrix(-1 0 0 1 1147 208)" fill="#1562AF" fill-opacity="0.14"/>
<rect width="122" height="3" rx="1.5" transform="matrix(-1 0 0 1 1275 208)" fill="#1562AF" fill-opacity="0.14"/>
<rect width="93" height="3" rx="1.5" transform="matrix(-1 0 0 1 1374 208)" fill="#1562AF" fill-opacity="0.14"/>
<rect width="58" height="3" rx="1.5" transform="matrix(-1 0 0 1 1438 208)" fill="#1562AF" fill-opacity="0.34"/>
<rect width="118" height="3" rx="1.5" transform="matrix(-1 0 0 1 1438 30)" fill="#1562AF" fill-opacity="0.14"/>
<rect width="128" height="3" rx="1.5" transform="matrix(-1 0 0 1 1438 219)" fill="#1562AF" fill-opacity="0.14"/>
<rect width="112" height="3" rx="1.5" transform="matrix(-1 0 0 1 1314 30)" fill="#1562AF" fill-opacity="0.34"/>
<rect width="121" height="3" rx="1.5" transform="matrix(-1 0 0 1 1257 219)" fill="#1562AF" fill-opacity="0.14"/>
<rect x="1158" y="30" width="38" height="3" rx="1.5" fill="#1562AF" fill-opacity="0.14"/>
<rect x="1263" y="219" width="41" height="3" rx="1.5" fill="#1562AF" fill-opacity="0.34"/>
<rect width="92" height="3" rx="1.5" transform="matrix(-1 0 0 1 1338 41)" fill="#1562AF" fill-opacity="0.14"/>
<rect width="99" height="3" rx="1.5" transform="matrix(-1 0 0 1 1330 230)" fill="#1562AF" fill-opacity="0.14"/>
<rect width="94" height="3" rx="1.5" transform="matrix(-1 0 0 1 1438 41)" fill="#1562AF" fill-opacity="0.34"/>
<rect width="102" height="3" rx="1.5" transform="matrix(-1 0 0 1 1438 230)" fill="#1562AF" fill-opacity="0.34"/>
<rect width="23" height="3" rx="1.5" transform="matrix(-1 0 0 1 1212 41)" fill="#1562AF" fill-opacity="0.34"/>
<rect width="23" height="3" rx="1.5" transform="matrix(-1 0 0 1 1241 41)" fill="#1562AF" fill-opacity="0.14"/>
<rect width="62" height="3" rx="1.5" transform="matrix(-1 0 0 1 1225 230)" fill="#1562AF" fill-opacity="0.34"/>
<rect width="68" height="3" rx="1.5" transform="matrix(-1 0 0 1 1183 41)" fill="#1562AF" fill-opacity="0.14"/>
<rect width="79" height="3" rx="1.5" transform="matrix(-1 0 0 1 1186 84)" fill="#1562AF" fill-opacity="0.14"/>
<rect width="79" height="3" rx="1.5" transform="matrix(-1 0 0 1 1186 241)" fill="#1562AF" fill-opacity="0.34"/>
<rect width="127" height="3" rx="1.5" transform="matrix(-1 0 0 1 1319 84)" fill="#1562AF" fill-opacity="0.14"/>
<rect width="127" height="3" rx="1.5" transform="matrix(-1 0 0 1 1319 241)" fill="#1562AF" fill-opacity="0.14"/>
<rect width="29" height="3" rx="1.5" transform="matrix(-1 0 0 1 1354 84)" fill="#1562AF" fill-opacity="0.34"/>
<rect width="29" height="3" rx="1.5" transform="matrix(-1 0 0 1 1354 241)" fill="#1562AF" fill-opacity="0.34"/>
<rect width="78" height="3" rx="1.5" transform="matrix(-1 0 0 1 1438 84)" fill="#1562AF" fill-opacity="0.14"/>
<rect width="78" height="3" rx="1.5" transform="matrix(-1 0 0 1 1438 241)" fill="#1562AF" fill-opacity="0.14"/>
<rect width="53" height="3" rx="1.5" transform="matrix(-1 0 0 1 1128 95)" fill="#1562AF" fill-opacity="0.34"/>
<rect width="53" height="3" rx="1.5" transform="matrix(-1 0 0 1 1128 252)" fill="#1562AF" fill-opacity="0.14"/>
<rect width="126" height="3" rx="1.5" transform="matrix(-1 0 0 1 1260 95)" fill="#1562AF" fill-opacity="0.14"/>
<rect width="126" height="3" rx="1.5" transform="matrix(-1 0 0 1 1260 252)" fill="#1562AF" fill-opacity="0.14"/>
<rect width="27" height="3" rx="1.5" transform="matrix(-1 0 0 1 1293 95)" fill="#1562AF" fill-opacity="0.34"/>
<rect width="45" height="3" rx="1.5" transform="matrix(-1 0 0 1 1344 95)" fill="#1562AF" fill-opacity="0.14"/>
<rect width="78" height="3" rx="1.5" transform="matrix(-1 0 0 1 1344 252)" fill="#1562AF" fill-opacity="0.34"/>
<rect width="60" height="3" rx="1.5" transform="matrix(-1 0 0 1 1410 95)" fill="#1562AF" fill-opacity="0.14"/>
<rect width="88" height="3" rx="1.5" transform="matrix(-1 0 0 1 1438 252)" fill="#1562AF" fill-opacity="0.14"/>
<rect width="22" height="3" rx="1.5" transform="matrix(-1 0 0 1 1438 95)" fill="#1562AF" fill-opacity="0.14"/>
<rect width="64" height="3" rx="1.5" transform="matrix(-1 0 0 1 1438 106)" fill="#1562AF" fill-opacity="0.34"/>
<rect width="64" height="3" rx="1.5" transform="matrix(-1 0 0 1 1438 263)" fill="#1562AF" fill-opacity="0.34"/>
<rect width="86" height="3" rx="1.5" transform="matrix(-1 0 0 1 1368 106)" fill="#1562AF" fill-opacity="0.14"/>
<rect width="154" height="3" rx="1.5" transform="matrix(-1 0 0 1 1368 263)" fill="#1562AF" fill-opacity="0.14"/>
<g filter="url(#filter2_f_401_609)">
<rect x="272" y="235" width="891" height="52" fill="#14589C"/>
</g>
<g clip-path="url(#clip1_401_609)">
<path d="M698.763 70.2377C698.079 69.5541 698.079 68.4462 698.762 67.7625C698.762 67.7625 698.762 67.7624 698.763 67.7623C698.763 67.7623 698.763 67.7623 698.763 67.7623C699.446 67.0794 700.554 67.0795 701.238 67.7626L716.235 82.7646L716.235 82.7647C716.919 83.4483 716.919 84.5516 716.235 85.2353L716.235 85.2353L701.238 100.235C700.554 100.919 699.446 100.919 698.763 100.235C698.079 99.5516 698.079 98.4483 698.763 97.7646L698.763 97.7646L711.991 84.5302L712.521 83.9999L711.991 83.4697L698.763 70.2377C698.763 70.2377 698.763 70.2377 698.763 70.2377ZM740 97.25C740.969 97.25 741.75 98.0314 741.75 99C741.75 99.9686 740.969 100.75 740 100.75H717.5C716.531 100.75 715.75 99.9686 715.75 99C715.75 98.0314 716.531 97.25 717.5 97.25H740Z" stroke="#3294F8" stroke-width="1.5"/>
</g>
<path d="M660.484 142.27V149.758C659.375 150.773 657.129 151.281 653.746 151.281C653.082 151.281 652.496 151.254 651.988 151.199C651.488 151.145 651.027 151.074 650.605 150.988C650.191 150.902 649.836 150.758 649.539 150.555C649.242 150.344 648.98 150.133 648.754 149.922C648.527 149.711 648.344 149.406 648.203 149.008C648.062 148.602 647.945 148.211 647.852 147.836C647.766 147.461 647.699 146.957 647.652 146.324C647.613 145.691 647.586 145.086 647.57 144.508C647.555 143.93 647.547 143.188 647.547 142.281C647.547 141.508 647.551 140.848 647.559 140.301C647.574 139.754 647.602 139.195 647.641 138.625C647.688 138.055 647.746 137.582 647.816 137.207C647.895 136.824 647.996 136.441 648.121 136.059C648.254 135.668 648.406 135.355 648.578 135.121C648.75 134.879 648.965 134.641 649.223 134.406C649.48 134.172 649.766 133.992 650.078 133.867C650.398 133.742 650.77 133.629 651.191 133.527C651.613 133.426 652.074 133.359 652.574 133.328C653.074 133.289 653.641 133.27 654.273 133.27C654.312 133.27 654.371 133.27 654.449 133.27C654.996 133.27 655.41 133.273 655.691 133.281C655.973 133.289 656.352 133.32 656.828 133.375C657.312 133.422 657.684 133.5 657.941 133.609C658.199 133.711 658.496 133.867 658.832 134.078C659.168 134.281 659.418 134.535 659.582 134.84C659.746 135.137 659.891 135.516 660.016 135.977C660.141 136.438 660.203 136.969 660.203 137.57C660.203 137.711 660.195 137.906 660.18 138.156L658.082 138.555L657.953 136.246C657.938 135.746 657.652 135.426 657.098 135.285C656.543 135.137 655.492 135.062 653.945 135.062C652.891 135.062 652.094 135.129 651.555 135.262C651.016 135.387 650.641 135.582 650.43 135.848C650.219 136.113 650.09 136.508 650.043 137.031C649.973 138.633 649.938 140.273 649.938 141.953C649.938 143.641 649.973 145.281 650.043 146.875C650.082 147.719 650.148 148.266 650.242 148.516C650.391 148.898 650.73 149.156 651.262 149.289C651.762 149.414 652.633 149.477 653.875 149.477C656.547 149.477 658.027 149.297 658.316 148.938C658.309 148.133 658.305 146.5 658.305 144.039H655.352L655.152 142.27H660.484ZM666.426 151H664.047V133.539H666.426V151ZM679.891 135.344H675.332V151H672.953V135.344H668.488V133.539H679.891V135.344ZM694.445 151H692.066V142.984H684.262V151H681.883V133.539H684.262V141.133H692.066V133.539H694.445V151ZM711.355 133.539V144.473C711.355 145.41 711.312 146.215 711.227 146.887C711.148 147.559 711.004 148.156 710.793 148.68C710.582 149.195 710.316 149.617 709.996 149.945C709.684 150.266 709.27 150.531 708.754 150.742C708.246 150.945 707.676 151.086 707.043 151.164C706.41 151.242 705.645 151.281 704.746 151.281C703.879 151.281 703.141 151.246 702.531 151.176C701.922 151.105 701.359 150.977 700.844 150.789C700.328 150.594 699.91 150.34 699.59 150.027C699.277 149.707 699.008 149.293 698.781 148.785C698.555 148.27 698.395 147.664 698.301 146.969C698.215 146.273 698.172 145.441 698.172 144.473V133.539H700.551V144.777C700.551 145.426 700.551 145.895 700.551 146.184C700.559 146.473 700.582 146.828 700.621 147.25C700.66 147.664 700.711 147.949 700.773 148.105C700.836 148.254 700.938 148.441 701.078 148.668C701.227 148.895 701.391 149.039 701.57 149.102C701.758 149.156 702.012 149.227 702.332 149.312C702.652 149.398 702.996 149.449 703.363 149.465C703.738 149.473 704.203 149.477 704.758 149.477C705.414 149.477 705.961 149.457 706.398 149.418C706.844 149.379 707.23 149.301 707.559 149.184C707.887 149.066 708.137 148.934 708.309 148.785C708.488 148.629 708.629 148.402 708.73 148.105C708.84 147.809 708.91 147.5 708.941 147.18C708.973 146.859 708.988 146.434 708.988 145.902L708.977 133.539H711.355ZM727.398 145.973C727.391 146.465 727.371 146.898 727.34 147.273C727.316 147.641 727.273 147.988 727.211 148.316C727.148 148.645 727.082 148.922 727.012 149.148C726.941 149.375 726.828 149.59 726.672 149.793C726.523 149.988 726.379 150.148 726.238 150.273C726.098 150.391 725.895 150.5 725.629 150.602C725.371 150.695 725.121 150.766 724.879 150.812C724.637 150.859 724.312 150.898 723.906 150.93C723.508 150.961 723.121 150.98 722.746 150.988C722.379 150.996 721.914 151 721.352 151H715.094V133.539H721.727C722.609 133.539 723.34 133.586 723.918 133.68C724.504 133.766 725.02 133.926 725.465 134.16C725.918 134.395 726.246 134.727 726.449 135.156C726.652 135.586 726.758 136.133 726.766 136.797L726.777 138.062C726.777 138.594 726.758 139.027 726.719 139.363C726.68 139.699 726.609 140.004 726.508 140.277C726.414 140.551 726.27 140.766 726.074 140.922C725.879 141.078 725.641 141.211 725.359 141.32C725.086 141.422 724.73 141.512 724.293 141.59C724.824 141.645 725.281 141.762 725.664 141.941C726.047 142.121 726.348 142.336 726.566 142.586C726.793 142.836 726.969 143.152 727.094 143.535C727.219 143.918 727.301 144.293 727.34 144.66C727.379 145.027 727.398 145.465 727.398 145.973ZM724.457 137.559C724.457 137.543 724.457 137.52 724.457 137.488C724.457 137.16 724.457 136.93 724.457 136.797C724.457 136.656 724.434 136.488 724.387 136.293C724.348 136.09 724.305 135.957 724.258 135.895C724.219 135.832 724.121 135.75 723.965 135.648C723.816 135.539 723.668 135.477 723.52 135.461C723.371 135.438 723.137 135.41 722.816 135.379C722.504 135.34 722.191 135.32 721.879 135.32C721.566 135.32 721.141 135.32 720.602 135.32H717.449V140.922H719.805C720.828 140.922 721.656 140.895 722.289 140.84C722.922 140.777 723.391 140.676 723.695 140.535C724.008 140.387 724.211 140.23 724.305 140.066C724.406 139.902 724.457 139.684 724.457 139.41V137.559ZM725.078 145.41C725.062 144.48 725.027 143.895 724.973 143.652C724.863 143.223 724.594 142.93 724.164 142.773C723.633 142.57 722.445 142.465 720.602 142.457C720.477 142.457 720.34 142.457 720.191 142.457H717.449V149.23H721.926C722.832 149.23 723.516 149.156 723.977 149.008C724.438 148.852 724.742 148.621 724.891 148.316C725.039 148.012 725.109 147.562 725.102 146.969L725.078 145.41ZM747.555 145.973C747.547 146.465 747.527 146.898 747.496 147.273C747.473 147.641 747.43 147.988 747.367 148.316C747.305 148.645 747.238 148.922 747.168 149.148C747.098 149.375 746.984 149.59 746.828 149.793C746.68 149.988 746.535 150.148 746.395 150.273C746.254 150.391 746.051 150.5 745.785 150.602C745.527 150.695 745.277 150.766 745.035 150.812C744.793 150.859 744.469 150.898 744.062 150.93C743.664 150.961 743.277 150.98 742.902 150.988C742.535 150.996 742.07 151 741.508 151H735.25V133.539H741.883C742.766 133.539 743.496 133.586 744.074 133.68C744.66 133.766 745.176 133.926 745.621 134.16C746.074 134.395 746.402 134.727 746.605 135.156C746.809 135.586 746.914 136.133 746.922 136.797L746.934 138.062C746.934 138.594 746.914 139.027 746.875 139.363C746.836 139.699 746.766 140.004 746.664 140.277C746.57 140.551 746.426 140.766 746.23 140.922C746.035 141.078 745.797 141.211 745.516 141.32C745.242 141.422 744.887 141.512 744.449 141.59C744.98 141.645 745.438 141.762 745.82 141.941C746.203 142.121 746.504 142.336 746.723 142.586C746.949 142.836 747.125 143.152 747.25 143.535C747.375 143.918 747.457 144.293 747.496 144.66C747.535 145.027 747.555 145.465 747.555 145.973ZM744.613 137.559C744.613 137.543 744.613 137.52 744.613 137.488C744.613 137.16 744.613 136.93 744.613 136.797C744.613 136.656 744.59 136.488 744.543 136.293C744.504 136.09 744.461 135.957 744.414 135.895C744.375 135.832 744.277 135.75 744.121 135.648C743.973 135.539 743.824 135.477 743.676 135.461C743.527 135.438 743.293 135.41 742.973 135.379C742.66 135.34 742.348 135.32 742.035 135.32C741.723 135.32 741.297 135.32 740.758 135.32H737.605V140.922H739.961C740.984 140.922 741.812 140.895 742.445 140.84C743.078 140.777 743.547 140.676 743.852 140.535C744.164 140.387 744.367 140.23 744.461 140.066C744.562 139.902 744.613 139.684 744.613 139.41V137.559ZM745.234 145.41C745.219 144.48 745.184 143.895 745.129 143.652C745.02 143.223 744.75 142.93 744.32 142.773C743.789 142.57 742.602 142.465 740.758 142.457C740.633 142.457 740.496 142.457 740.348 142.457H737.605V149.23H742.082C742.988 149.23 743.672 149.156 744.133 149.008C744.594 148.852 744.898 148.621 745.047 148.316C745.195 148.012 745.266 147.562 745.258 146.969L745.234 145.41ZM759.59 151H750.719V133.539H753.098V149.207H759.824L759.59 151ZM768.812 151.281C768.133 151.281 767.527 151.266 766.996 151.234C766.473 151.203 765.988 151.125 765.543 151C765.098 150.883 764.715 150.773 764.395 150.672C764.082 150.57 763.797 150.379 763.539 150.098C763.289 149.809 763.082 149.562 762.918 149.359C762.754 149.148 762.613 148.805 762.496 148.328C762.379 147.844 762.293 147.434 762.238 147.098C762.184 146.754 762.137 146.227 762.098 145.516C762.066 144.805 762.047 144.195 762.039 143.688C762.039 143.18 762.039 142.445 762.039 141.484C762.039 140.328 762.07 139.367 762.133 138.602C762.195 137.836 762.316 137.125 762.496 136.469C762.684 135.812 762.926 135.297 763.223 134.922C763.527 134.547 763.938 134.227 764.453 133.961C764.977 133.688 765.582 133.504 766.27 133.41C766.965 133.309 767.812 133.258 768.812 133.258C769.758 133.258 770.566 133.305 771.238 133.398C771.91 133.492 772.504 133.66 773.02 133.902C773.543 134.137 773.961 134.434 774.273 134.793C774.594 135.145 774.855 135.609 775.059 136.188C775.262 136.766 775.398 137.414 775.469 138.133C775.547 138.844 775.586 139.711 775.586 140.734C775.586 143.625 775.543 145.527 775.457 146.441C775.309 148.004 774.949 149.121 774.379 149.793C773.777 150.512 772.754 150.965 771.309 151.152C770.621 151.238 769.789 151.281 768.812 151.281ZM770.488 135.109C770.043 135.078 769.484 135.062 768.812 135.062C768.141 135.062 767.582 135.078 767.137 135.109C766.691 135.141 766.301 135.207 765.965 135.309C765.637 135.41 765.383 135.523 765.203 135.648C765.023 135.773 764.875 135.969 764.758 136.234C764.648 136.492 764.574 136.758 764.535 137.031C764.504 137.305 764.48 137.676 764.465 138.145C764.441 139.59 764.43 141.043 764.43 142.504C764.43 144.707 764.488 146.215 764.605 147.027C764.793 148.246 765.148 148.949 765.672 149.137C766.062 149.363 767.109 149.477 768.812 149.477C770.516 149.477 771.562 149.363 771.953 149.137C772.102 149.082 772.234 148.992 772.352 148.867C772.477 148.742 772.578 148.574 772.656 148.363C772.742 148.152 772.816 147.941 772.879 147.73C772.941 147.512 772.992 147.234 773.031 146.898C773.07 146.562 773.102 146.262 773.125 145.996C773.148 145.723 773.164 145.379 773.172 144.965C773.18 144.543 773.184 144.195 773.184 143.922C773.191 143.648 773.195 143.285 773.195 142.832C773.195 141.254 773.184 139.691 773.16 138.145C773.145 137.676 773.117 137.305 773.078 137.031C773.047 136.758 772.973 136.492 772.855 136.234C772.746 135.969 772.602 135.773 772.422 135.648C772.242 135.523 771.984 135.41 771.648 135.309C771.32 135.207 770.934 135.141 770.488 135.109ZM791.617 142.27V149.758C790.508 150.773 788.262 151.281 784.879 151.281C784.215 151.281 783.629 151.254 783.121 151.199C782.621 151.145 782.16 151.074 781.738 150.988C781.324 150.902 780.969 150.758 780.672 150.555C780.375 150.344 780.113 150.133 779.887 149.922C779.66 149.711 779.477 149.406 779.336 149.008C779.195 148.602 779.078 148.211 778.984 147.836C778.898 147.461 778.832 146.957 778.785 146.324C778.746 145.691 778.719 145.086 778.703 144.508C778.688 143.93 778.68 143.188 778.68 142.281C778.68 141.508 778.684 140.848 778.691 140.301C778.707 139.754 778.734 139.195 778.773 138.625C778.82 138.055 778.879 137.582 778.949 137.207C779.027 136.824 779.129 136.441 779.254 136.059C779.387 135.668 779.539 135.355 779.711 135.121C779.883 134.879 780.098 134.641 780.355 134.406C780.613 134.172 780.898 133.992 781.211 133.867C781.531 133.742 781.902 133.629 782.324 133.527C782.746 133.426 783.207 133.359 783.707 133.328C784.207 133.289 784.773 133.27 785.406 133.27C785.445 133.27 785.504 133.27 785.582 133.27C786.129 133.27 786.543 133.273 786.824 133.281C787.105 133.289 787.484 133.32 787.961 133.375C788.445 133.422 788.816 133.5 789.074 133.609C789.332 133.711 789.629 133.867 789.965 134.078C790.301 134.281 790.551 134.535 790.715 134.84C790.879 135.137 791.023 135.516 791.148 135.977C791.273 136.438 791.336 136.969 791.336 137.57C791.336 137.711 791.328 137.906 791.312 138.156L789.215 138.555L789.086 136.246C789.07 135.746 788.785 135.426 788.23 135.285C787.676 135.137 786.625 135.062 785.078 135.062C784.023 135.062 783.227 135.129 782.688 135.262C782.148 135.387 781.773 135.582 781.562 135.848C781.352 136.113 781.223 136.508 781.176 137.031C781.105 138.633 781.07 140.273 781.07 141.953C781.07 143.641 781.105 145.281 781.176 146.875C781.215 147.719 781.281 148.266 781.375 148.516C781.523 148.898 781.863 149.156 782.395 149.289C782.895 149.414 783.766 149.477 785.008 149.477C787.68 149.477 789.16 149.297 789.449 148.938C789.441 148.133 789.438 146.5 789.438 144.039H786.484L786.285 142.27H791.617Z" fill="#3294F8"/>
</g>
<defs>
<filter id="filter0_f_401_609" x="-530" y="-496" width="1036" height="1036" filterUnits="userSpaceOnUse" color-interpolation-filters="sRGB">
<feFlood flood-opacity="0" result="BackgroundImageFix"/>
<feBlend mode="normal" in="SourceGraphic" in2="BackgroundImageFix" result="shape"/>
<feGaussianBlur stdDeviation="200" result="effect1_foregroundBlur_401_609"/>
</filter>
<filter id="filter1_f_401_609" x="909.427" y="-402.708" width="891.29" height="891.29" filterUnits="userSpaceOnUse" color-interpolation-filters="sRGB">
<feFlood flood-opacity="0" result="BackgroundImageFix"/>
<feBlend mode="normal" in="SourceGraphic" in2="BackgroundImageFix" result="shape"/>
<feGaussianBlur stdDeviation="184" result="effect1_foregroundBlur_401_609"/>
</filter>
<filter id="filter2_f_401_609" x="60" y="23" width="1315" height="476" filterUnits="userSpaceOnUse" color-interpolation-filters="sRGB">
<feFlood flood-opacity="0" result="BackgroundImageFix"/>
<feBlend mode="normal" in="SourceGraphic" in2="BackgroundImageFix" result="shape"/>
<feGaussianBlur stdDeviation="106" result="effect1_foregroundBlur_401_609"/>
</filter>
<clipPath id="clip0_401_609">
<rect width="1440" height="296" fill="white"/>
</clipPath>
<clipPath id="clip1_401_609">
<rect width="45" height="40" fill="white" transform="translate(697.5 64)"/>
</clipPath>
</defs>
</svg>
